<svg xmlns="http://www.w3.org/2000/svg" width="155" height="33">
  <path d="M100.348 9.899l-1.273.226a40.566 40.566 0 00-7.2 1.993V4.984l-.678.313c-1.54.71-3 1.451-4.394 2.232L86.756.054l-.737.483a61.494 61.494 0 00-9.813 7.957A87.209 87.209 0 0066.688.55L65.929 0v7.747a51.7 51.7 0 00-4.659-2.382l-.678-.3.032 6.633a30.558 30.558 0 00-6.981-1.595l-1.141-.119 9.131 11.7-.041-8.567a36.7 36.7 0 014.336 2.084v7.417l.095.131c2.685 3.706 9.748 9.736 10.047 9.99l.306.26.307-.259c.3-.252 7.367-6.219 10.054-10.07l.158-.277-.043-6.9a44.342 44.342 0 014.06-1.933v8.165zm-8.478 3.272a40.154 40.154 0 016.074-1.82l-6.074 7.608zm-37.166-1.942a30.108 30.108 0 015.921 1.52l.029 6.105zm31.091-9.37l.01 6.241a48.67 48.67 0 00-6 4.149q-.61-.687-1.253-1.372-.806-.858-1.662-1.707a59.88 59.88 0 018.905-7.311zm-16.175 14.5q-1.349-.932-2.733-1.739V9.467a53.194 53.194 0 015.168 3.649q-1.264 1.569-2.435 3.241zm3.182-2.635q1.408 1.166 2.745 2.433-1.29 1.334-2.523 2.8c-.762-.643-1.637-1.337-2.616-2.046q1.149-1.642 2.394-3.189zm6.259-.858q-1.459 1.234-2.829 2.6-1.367-1.3-2.81-2.494 1.34-1.607 2.792-3.109 1.503 1.488 2.847 3.001zm-.145 6.777c-1.289 1.061-2.179 1.918-2.64 2.383-.443-.476-1.3-1.353-2.516-2.429q1.218-1.45 2.488-2.763 1.379 1.352 2.668 2.807zm-5.779.71a32.572 32.572 0 012.768 2.713l.35.405.361-.395a31.7 31.7 0 012.943-2.695q.905 1.059 1.762 2.167l-4.917 4.767-4.993-4.733q.855-1.157 1.726-2.231zm3.8-4.212q1.346-1.335 2.772-2.538 1.466 1.7 2.72 3.421l-.265.18c-.927.636-1.757 1.253-2.486 1.827q-1.327-1.497-2.743-2.892zm3.515-3.152a47.591 47.591 0 015.357-3.745l.009 5.7c-.937.523-1.8 1.047-2.582 1.552q-1.281-1.762-2.787-3.509zM66.89 1.914a85.818 85.818 0 018.638 7.271q-.752.778-1.473 1.579-.7.782-1.378 1.6a54.048 54.048 0 00-5.787-4.043zm-3.914 10.712q-.693-.3-1.389-.572l-.026-5.472q2.232 1.041 4.367 2.3v5.192q-1.468-.799-2.954-1.45zm6.092 4.539q-1.139 1.684-2.178 3.459v-4.862c.783.472 1.511.943 2.176 1.401zm7.31 14.554c-1.37-1.186-6.971-6.1-9.394-9.3q1.352-2.441 2.872-4.7c.949.688 1.8 1.365 2.547 1.994q-1.023 1.262-2.02 2.63l-.26.356 6.291 5.964 6.208-6.018-.269-.354q-.984-1.294-2.033-2.522c.7-.551 1.5-1.142 2.378-1.747l.3-.2a42.5 42.5 0 012.779 4.524c-2.414 3.301-8.028 8.193-9.398 9.371zm9.448-11.28q-.915-1.571-2.02-3.15c.621-.4 1.293-.811 2.014-1.224zm1.018-6.056l-.036-5.728c1.3-.748 2.667-1.459 4.1-2.139v5.98c-1.463.59-2.822 1.232-4.066 1.885z" fill="#fab00b"/>
  <path d="M0 9.941q0-.333.3-.332h.98a.41.41 0 01.2.054.435.435 0 01.171.207l4.476 8.827.288.854-.09-.863-.072-8.745a.365.365 0 01.076-.238.276.276 0 01.229-.094h1.007a.287.287 0 01.206.076.326.326 0 01.081.247v12.17a.282.282 0 01-.315.324h-.953a.5.5 0 01-.207-.05.355.355 0 01-.171-.2l-4.449-8.7-.314-.881.1.89.054 8.611q0 .333-.288.333H.294q-.3 0-.3-.333zM18.604 22.084a.259.259 0 01-.014.247.232.232 0 01-.2.095h-1.159a.409.409 0 01-.2-.054.3.3 0 01-.135-.207l-.6-2.364h-3.883l-.593 2.364a.3.3 0 01-.135.207.409.409 0 01-.2.054h-1.16a.221.221 0 01-.2-.095.286.286 0 01-.018-.247l3.425-12.206a.393.393 0 01.13-.216.318.318 0 01.193-.063h1a.338.338 0 01.2.063.384.384 0 01.135.216zm-5.807-3.793h3.119l-1.42-5.627-.135-.953-.135.953zM24.139 9.931a.305.305 0 01.09-.252.3.3 0 01.189-.072h1.079a.284.284 0 01.247.094.451.451 0 01.067.265l-.009 9.5a3.317 3.317 0 01-.247 1.3 2.913 2.913 0 01-1.667 1.627 3.357 3.357 0 01-1.231.225 3.5 3.5 0 01-1.344-.265 2.929 2.929 0 01-1.056-.715.656.656 0 01-.144-.234.24.24 0 01.072-.27l.584-.683a.268.268 0 01.247-.1.426.426 0 01.221.135 2.26 2.26 0 00.544.364 1.734 1.734 0 00.8.175 1.512 1.512 0 00.629-.13 1.46 1.46 0 00.494-.365 1.688 1.688 0 00.323-.566 2.183 2.183 0 00.117-.728zM28.282 13.74a5.519 5.519 0 01.252-1.681 4.07 4.07 0 01.751-1.389 3.537 3.537 0 011.24-.944 4.43 4.43 0 013.434 0 3.654 3.654 0 011.25.939 4 4 0 01.764 1.384 5.431 5.431 0 01.256 1.681v4.575a5.428 5.428 0 01-.256 1.681 4.034 4.034 0 01-.76 1.384 3.6 3.6 0 01-1.25.939 4.04 4.04 0 01-1.717.346 3.979 3.979 0 01-1.708-.346 3.623 3.623 0 01-1.241-.939 4.035 4.035 0 01-.76-1.384 5.428 5.428 0 01-.256-1.681zm1.663 4.674a3.556 3.556 0 00.148 1.042 2.422 2.422 0 00.44.841 2.105 2.105 0 00.719.562 2.253 2.253 0 00.993.207 2.28 2.28 0 001-.207 2.14 2.14 0 00.728-.562 2.388 2.388 0 00.445-.836 3.5 3.5 0 00.148-1.038v-4.809a3.389 3.389 0 00-.153-1.029 2.543 2.543 0 00-.445-.841 2.123 2.123 0 00-.724-.57 2.465 2.465 0 00-1.987 0 2.083 2.083 0 00-.724.566 2.474 2.474 0 00-.44.845 3.531 3.531 0 00-.148 1.034zM37.753 9.913a.311.311 0 01.076-.229.262.262 0 01.193-.076h7.209a.25.25 0 01.184.076.311.311 0 01.076.229v1a.282.282 0 01-.076.221.27.27 0 01-.184.067h-2.778v10.921a.325.325 0 01-.072.23.248.248 0 01-.189.076h-1.131a.259.259 0 01-.2-.076.325.325 0 01-.072-.23V11.199h-2.768a.251.251 0 01-.27-.288z"/>
  <g>
    <path d="M107.363 9.693a.309.309 0 01.076-.229.261.261 0 01.193-.076h7.209a.25.25 0 01.184.076.31.31 0 01.076.229v1a.28.28 0 01-.076.22.269.269 0 01-.184.067h-2.777v10.9a.322.322 0 01-.072.229.248.248 0 01-.189.076h-1.132a.259.259 0 01-.2-.076.324.324 0 01-.072-.229v-10.9h-2.768a.251.251 0 01-.269-.287zM124.059 21.836a.258.258 0 01-.013.247.232.232 0 01-.2.094h-1.159a.41.41 0 01-.2-.054.3.3 0 01-.135-.206l-.6-2.359h-3.883l-.593 2.359a.3.3 0 01-.135.206.409.409 0 01-.2.054h-1.16a.221.221 0 01-.2-.094.285.285 0 01-.018-.247l3.424-12.179a.4.4 0 01.13-.215.317.317 0 01.193-.063h1a.337.337 0 01.2.063.383.383 0 01.135.215zm-5.806-3.785h3.118l-1.42-5.614-.135-.95-.135.95zM126.059 9.783a.417.417 0 01.085-.274.313.313 0 01.256-.1h1.151q.341 0 .341.377v1.537a1.11 1.11 0 01-.1.49.945.945 0 01-.265.333 1.125 1.125 0 01-.382.193 1.568 1.568 0 01-.44.063q-.279 0-.279-.225v-.369a.161.161 0 01.081-.153.383.383 0 01.189-.045.211.211 0 00.175-.063.286.286 0 00.049-.18.265.265 0 00-.04-.166.184.184 0 00-.148-.049h-.369a.312.312 0 01-.216-.081.335.335 0 01-.09-.26zM131.028 9.72q0-.332.3-.332h1.07q.3 0 .3.332v10.878h4.2a.294.294 0 01.2.067.28.28 0 01.076.22v.986a.312.312 0 01-.076.229.274.274 0 01-.2.076h-5.564q-.3 0-.3-.332zM139.82 9.72q0-.332.306-.332h1.07q.288 0 .288.332v12.125q0 .332-.288.332h-1.07q-.306 0-.306-.332zM146.928 13.307l-.324-1.166.108 1.157.072 8.556q.018.323-.27.323h-1.052a.212.212 0 01-.2-.09.467.467 0 01-.054-.242V9.675a.365.365 0 01.076-.215.238.238 0 01.193-.081h1.274a.186.186 0 01.166.072.877.877 0 01.095.2l2.953 7.82.143.744.144-.753 2.97-7.811a.863.863 0 01.094-.2.188.188 0 01.166-.072h1.251a.237.237 0 01.192.081.368.368 0 01.076.215v12.17q.018.332-.241.332h-1.055q-.268 0-.268-.323l.08-8.547.1-1.13-.305 1.13-2.517 6.61a.473.473 0 01-.108.211.242.242 0 01-.171.058h-.809a.23.23 0 01-.162-.058.478.478 0 01-.108-.211z"/>
  </g>
</svg>
