<svg xmlns="http://www.w3.org/2000/svg" width="57.999" height="40" viewBox="0 0 57.999 40"><path d="M228.219,167.265l-1.543.274a49.17,49.17,0,0,0-8.733,2.416v-8.647l-.822.379c-1.867.86-3.637,1.759-5.326,2.705l-.057-9.06-.894.585a74.538,74.538,0,0,0-11.894,9.645,105.709,105.709,0,0,0-11.536-9.629l-.92-.667v9.391a62.663,62.663,0,0,0-5.647-2.887l-.821-.368.038,8.04a37.041,37.041,0,0,0-8.461-1.933l-1.383-.144,11.068,14.186-.049-10.384a44.482,44.482,0,0,1,5.255,2.526v8.99l.115.159c3.254,4.492,11.815,11.8,12.178,12.11l.37.315.372-.313c.363-.305,8.93-7.538,12.187-12.206l.192-.336-.053-8.37a53.745,53.745,0,0,1,4.921-2.343v9.9Zm-10.276,3.966a48.669,48.669,0,0,1,7.363-2.206l-7.363,9.221Zm-45.05-2.354a36.5,36.5,0,0,1,7.177,1.843l.035,7.4Zm37.686-11.357.012,7.565a59,59,0,0,0-7.273,5.029q-.739-.833-1.519-1.663-.977-1.04-2.014-2.069A72.581,72.581,0,0,1,210.579,157.52Zm-19.606,17.573q-1.635-1.13-3.312-2.107v-6.246a64.476,64.476,0,0,1,6.264,4.423Q192.392,173.065,190.973,175.092Zm3.857-3.194q1.707,1.414,3.327,2.949-1.564,1.617-3.058,3.4c-.923-.779-1.985-1.62-3.171-2.479Q193.321,173.774,194.83,171.9Zm7.587-1.04q-1.768,1.5-3.429,3.147-1.657-1.573-3.407-3.022,1.625-1.948,3.384-3.769Q200.788,169.025,202.417,170.859Zm-.176,8.215c-1.562,1.286-2.642,2.325-3.2,2.888-.537-.577-1.572-1.64-3.049-2.944q1.476-1.758,3.016-3.349Q200.678,177.309,202.241,179.073Zm-7.005.861a39.482,39.482,0,0,1,3.356,3.289l.424.491.438-.479a38.424,38.424,0,0,1,3.567-3.266q1.1,1.283,2.136,2.627l-5.96,5.778-6.052-5.737Q194.18,181.236,195.236,179.934Zm4.6-5.105q1.631-1.618,3.36-3.076,1.777,2.066,3.3,4.147l-.321.218c-1.124.771-2.13,1.519-3.013,2.215Q201.556,176.517,199.839,174.829Zm4.26-3.821a57.685,57.685,0,0,1,6.494-4.54l.011,6.9c-1.136.634-2.182,1.269-3.13,1.881Q205.924,173.13,204.1,171.008Zm-16.438-13.424a104.025,104.025,0,0,1,10.47,8.813q-.912.943-1.785,1.914-.851.948-1.67,1.935a65.517,65.517,0,0,0-7.015-4.9Zm-4.744,12.984q-.84-.367-1.684-.694l-.032-6.632q2.7,1.262,5.293,2.792v6.293Q184.718,171.357,182.916,170.567Zm7.385,5.5q-1.38,2.042-2.64,4.193V174.37C188.612,174.941,189.5,175.514,190.3,176.07Zm8.861,17.641c-1.66-1.437-8.45-7.4-11.386-11.274q1.638-2.959,3.481-5.691c1.151.834,2.185,1.654,3.088,2.417q-1.24,1.53-2.448,3.188l-.315.432,7.625,7.229,7.525-7.3-.326-.429q-1.193-1.568-2.464-3.057c.85-.668,1.814-1.384,2.883-2.118l.363-.247a51.508,51.508,0,0,1,3.368,5.484C207.631,186.353,200.827,192.283,199.162,193.711Zm11.452-13.672q-1.109-1.9-2.449-3.818c.753-.485,1.567-.983,2.441-1.484Zm1.234-7.34-.044-6.943c1.58-.907,3.233-1.768,4.973-2.593v7.248C215,171.128,213.356,171.906,211.848,172.7Z" transform="translate(-170.22 -155.266)" fill="#fab00b"/></svg>