<svg xmlns="http://www.w3.org/2000/svg" viewBox="0 0 100.183 94.705">
  <defs/>
  <g fill="#444544">
    <path d="M0 68.049q0-.358.32-.358h1.055a.44.44 0 01.213.058.471.471 0 01.184.222l4.821 9.508.31.92-.1-.93-.078-9.42a.4.4 0 01.082-.257.3.3 0 01.247-.1h1.084a.311.311 0 01.222.082.353.353 0 01.088.266v13.109a.3.3 0 01-.339.349H7.083a.535.535 0 01-.223-.053.383.383 0 01-.184-.218l-4.793-9.372-.339-.949.107.959.058 9.275q0 .358-.31.358H.315q-.32 0-.32-.358zM19.668 81.129a.28.28 0 01-.014.266.251.251 0 01-.218.1h-1.249a.443.443 0 01-.213-.058.321.321 0 01-.145-.223l-.649-2.546H13l-.639 2.546a.321.321 0 01-.145.223.443.443 0 01-.213.058h-1.249a.238.238 0 01-.213-.1.309.309 0 01-.019-.266l3.689-13.148a.428.428 0 01.141-.232.343.343 0 01.208-.068h1.075a.365.365 0 01.213.068.416.416 0 01.145.232zm-6.254-4.086h3.36l-1.53-6.061-.146-1.026-.145 1.026zM25.258 68.04a.33.33 0 01.1-.271.321.321 0 01.2-.078h1.162a.306.306 0 01.266.1.485.485 0 01.073.286l-.01 10.234a3.574 3.574 0 01-.266 1.4 3.134 3.134 0 01-1.8 1.752 3.618 3.618 0 01-1.326.242 3.764 3.764 0 01-1.448-.286 3.144 3.144 0 01-1.138-.77.7.7 0 01-.155-.252.259.259 0 01.077-.29l.63-.736a.29.29 0 01.266-.107.457.457 0 01.237.146 2.44 2.44 0 00.586.392 1.864 1.864 0 00.857.189 1.624 1.624 0 00.678-.141 1.568 1.568 0 00.532-.392 1.82 1.82 0 00.349-.61 2.357 2.357 0 00.126-.784zM29.347 72.145a5.942 5.942 0 01.271-1.811 4.383 4.383 0 01.809-1.5 3.811 3.811 0 011.336-1.016 4.771 4.771 0 013.7 0 3.94 3.94 0 011.346 1.011 4.308 4.308 0 01.823 1.491 5.835 5.835 0 01.276 1.81v4.929a5.834 5.834 0 01-.276 1.81 4.348 4.348 0 01-.818 1.491 3.876 3.876 0 01-1.346 1.011 4.352 4.352 0 01-1.85.373 4.285 4.285 0 01-1.839-.373 3.9 3.9 0 01-1.336-1.011 4.348 4.348 0 01-.818-1.491 5.833 5.833 0 01-.276-1.81zm1.791 5.035a3.819 3.819 0 00.16 1.123 2.6 2.6 0 00.474.906 2.266 2.266 0 00.774.6 2.429 2.429 0 001.07.223 2.46 2.46 0 001.075-.223 2.306 2.306 0 00.784-.6 2.565 2.565 0 00.479-.9 3.775 3.775 0 00.16-1.118v-5.18a3.65 3.65 0 00-.164-1.109 2.731 2.731 0 00-.479-.905 2.288 2.288 0 00-.779-.615 2.658 2.658 0 00-2.139 0 2.233 2.233 0 00-.779.61 2.656 2.656 0 00-.474.91 3.785 3.785 0 00-.16 1.113zM39.179 68.02a.335.335 0 01.082-.247.282.282 0 01.208-.082h7.765a.27.27 0 01.2.082.337.337 0 01.082.247v1.077a.3.3 0 01-.082.237.291.291 0 01-.2.072h-2.991V81.17a.348.348 0 01-.078.247.265.265 0 01-.2.083h-1.22a.277.277 0 01-.213-.083.348.348 0 01-.078-.247V69.405h-2.982a.27.27 0 01-.29-.31zM52.51 68.02a.335.335 0 01.082-.247.282.282 0 01.208-.082h7.765a.271.271 0 01.2.082.337.337 0 01.082.247v1.077a.3.3 0 01-.082.237.292.292 0 01-.2.072h-2.991V81.17a.348.348 0 01-.078.247.265.265 0 01-.2.083h-1.22a.276.276 0 01-.213-.083.346.346 0 01-.078-.247V69.405h-2.982a.27.27 0 01-.29-.31zM69.765 81.129a.28.28 0 01-.014.266.25.25 0 01-.218.1h-1.249a.444.444 0 01-.213-.058.32.32 0 01-.145-.223l-.649-2.546h-4.183l-.639 2.546a.321.321 0 01-.145.223.444.444 0 01-.213.058h-1.249a.238.238 0 01-.213-.1.308.308 0 01-.019-.266l3.689-13.148a.428.428 0 01.14-.232.343.343 0 01.208-.068h1.074a.365.365 0 01.213.068.416.416 0 01.145.232zm-6.255-4.086h3.36l-1.53-6.061-.145-1.026-.145 1.026zM71.192 68.117a.45.45 0 01.092-.295.338.338 0 01.276-.112h1.239q.368 0 .368.407v1.656a1.2 1.2 0 01-.107.528 1.011 1.011 0 01-.286.358 1.2 1.2 0 01-.412.208 1.689 1.689 0 01-.474.068c-.2 0-.3-.081-.3-.242v-.4a.173.173 0 01.087-.165.412.412 0 01.2-.048.228.228 0 00.189-.068.31.31 0 00.053-.193.286.286 0 00-.044-.179.2.2 0 00-.159-.054h-.4a.337.337 0 01-.232-.087.36.36 0 01-.1-.281zM75.814 68.049q0-.358.32-.358h1.152q.319 0 .319.358v11.748h4.526a.318.318 0 01.218.073.3.3 0 01.082.237v1.065a.335.335 0 01-.082.247.292.292 0 01-.218.083h-6q-.32 0-.32-.358zM84.551 68.049q0-.358.329-.358h1.151q.31 0 .31.358v13.09q0 .358-.31.358h-1.152q-.33 0-.329-.358zM91.491 71.922l-.349-1.259.116 1.249.078 9.237c.013.232-.084.349-.291.349h-1.133a.227.227 0 01-.213-.1.506.506 0 01-.058-.261V68.001a.392.392 0 01.083-.232.255.255 0 01.208-.087h1.359a.2.2 0 01.179.077.93.93 0 01.1.213l3.181 8.443.155.8.155-.813 3.2-8.433a.959.959 0 01.1-.213.2.2 0 01.179-.077h1.351a.253.253 0 01.207.087.4.4 0 01.082.232v13.138q.019.358-.26.358h-1.136q-.288 0-.289-.349l.087-9.227.106-1.22-.329 1.22-2.71 7.136a.513.513 0 01-.116.227.259.259 0 01-.184.063h-.871a.244.244 0 01-.174-.063.512.512 0 01-.116-.227z"/>
  </g>
  <g fill="#545454">
    <path d="M8.09 91.603v-3c0-1.591.846-2.595 2.268-2.595s2.268 1 2.268 2.595v3c0 1.591-.846 2.595-2.268 2.595S8.09 93.194 8.09 91.603zm3.825 0v-3c0-1.218-.53-1.918-1.557-1.918s-1.557.7-1.557 1.918v3c0 1.218.53 1.918 1.557 1.918s1.557-.699 1.557-1.918zM15.322 88.501l.519-2.347h.474l-.237 2.347zM23.051 94.705l-.654-.8a2.294 2.294 0 01-1.173.293c-1.422 0-2.268-1-2.268-2.595v-3c0-1.591.846-2.595 2.268-2.595s2.268 1 2.268 2.595v3a2.834 2.834 0 01-.632 1.929l.643.778zm-1.094-1.343l-.8-.97.452-.4.812.981a2.322 2.322 0 00.361-1.376v-3c0-1.218-.53-1.918-1.557-1.918s-1.557.7-1.557 1.918v3c0 1.218.53 1.918 1.557 1.918a1.63 1.63 0 00.731-.152zM26.706 91.721v-5.562h.7v5.562c0 1.218.6 1.76 1.455 1.76s1.455-.542 1.455-1.76v-5.562h.7v5.562c0 1.6-.891 2.437-2.155 2.437s-2.155-.837-2.155-2.437zM33.69 86.154h.745l1.185 4.942c.192.812.316 1.4.463 2h.045c.147-.6.271-1.185.463-2l1.185-4.942h.745l-2.008 7.9h-.812zM51.324 86.154v7.9h-.7v-4.175c0-.834.023-1.534.068-2.234l-.045-.011c-.2.564-.519 1.32-.812 2.076l-.97 2.482h-.7l-.97-2.482c-.294-.756-.609-1.512-.812-2.076l-.045.011c.045.7.068 1.4.068 2.234v4.175h-.7v-7.9h.745l1.41 3.408c.2.508.485 1.32.631 1.76h.045c.147-.44.429-1.252.632-1.76l1.41-3.408zM57.834 92.201h-2.5l-.463 1.85h-.745l2.076-7.9h.767l2.076 7.9H58.3zm-.158-.632l-.813-3.272c-.124-.485-.237-1.049-.27-1.241h-.023c-.034.192-.147.756-.271 1.241l-.812 3.272zM63.408 90.972h-.869v3.08h-.7v-7.9h1.805a2.072 2.072 0 012.257 2.313 2.218 2.218 0 01-1.738 2.46l1.941 3.125h-.812zm-.869-.654h1.095c1.026 0 1.557-.643 1.557-1.805 0-1.128-.53-1.7-1.546-1.7h-1.106zM70.357 90.204l-.564.767v3.08h-.7v-7.9h.7v3.77l.643-.925 2.02-2.843h.868l-2.516 3.441 2.832 4.456h-.832zM79.282 92.201h-2.5l-.463 1.85h-.748l2.076-7.9h.767l2.076 7.9h-.745zm-.158-.632l-.812-3.272c-.124-.485-.237-1.049-.271-1.241h-.023c-.034.192-.147.756-.27 1.241l-.813 3.272zM86.682 93.397v.654h-4.039v-.53l3.136-6.713h-2.99v-.654h3.836v.474l-3.159 6.769zM90.405 86.154v7.9h-.7v-7.9z"/>
  </g>
  <path fill="#fab00b" d="M95.748 18.401l-2.426.42a78.873 78.873 0 00-13.734 3.7V9.265l-1.293.581c-2.936 1.319-5.721 2.7-8.376 4.149L69.83.101l-1.405.9a116.712 116.712 0 00-18.71 14.789A165.357 165.357 0 0031.572 1.023L30.125 0v14.4q-4.336-2.437-8.881-4.428l-1.292-.565.06 12.33a59.513 59.513 0 00-13.307-2.964l-2.175-.221 17.406 21.754-.078-15.924a70.741 70.741 0 018.265 3.873v13.789l.181.243c5.118 6.889 18.581 18.1 19.152 18.571l.582.484.585-.481c.571-.468 14.043-11.56 19.166-18.718l.3-.515-.083-12.835c2.354-1.238 4.941-2.462 7.739-3.593v15.178zm-16.16 6.082A78.008 78.008 0 0191.167 21.1L79.588 35.241zM8.74 20.873a58.579 58.579 0 0111.286 2.826l.055 11.349zM68.007 3.457l.018 11.6a92.894 92.894 0 00-11.438 7.713q-1.162-1.277-2.389-2.551-1.537-1.6-3.167-3.173a113.6 113.6 0 0116.975-13.59zM37.173 30.406q-2.572-1.733-5.209-3.232v-9.578a101.436 101.436 0 019.851 6.783q-2.411 2.917-4.642 6.026zm6.065-4.9q2.685 2.168 5.233 4.523-2.46 2.48-4.81 5.213c-1.452-1.195-3.121-2.485-4.987-3.8q2.191-3.059 4.564-5.935zm11.932-1.595q-2.781 2.293-5.393 4.827-2.605-2.412-5.357-4.635 2.555-2.987 5.322-5.78 2.866 2.777 5.428 5.589zm-.276 12.6c-2.457 1.972-4.155 3.566-5.032 4.429-.845-.885-2.473-2.515-4.8-4.514q2.322-2.7 4.743-5.135 2.63 2.513 5.088 5.218zm-11.017 1.32a61.352 61.352 0 015.277 5.043l.667.754.689-.734a59.864 59.864 0 015.61-5.009q1.726 1.968 3.359 4.028l-9.373 8.861-9.517-8.8q1.626-2.148 3.288-4.14zm7.239-7.829q2.565-2.481 5.284-4.718 2.795 3.168 5.185 6.36l-.5.335c-1.767 1.182-3.349 2.33-4.739 3.4q-2.531-2.79-5.231-5.379zm6.7-5.859a90.788 90.788 0 0110.213-6.962l.017 10.588c-1.787.972-3.432 1.946-4.923 2.885q-2.438-3.259-5.308-6.513zM31.963 3.554a162.66 162.66 0 0116.465 13.515q-1.434 1.446-2.807 2.936-1.338 1.454-2.626 2.967a103.122 103.122 0 00-11.032-7.515zm-7.461 19.911q-1.321-.563-2.648-1.064l-.05-10.171q4.254 1.935 8.324 4.281v9.651q-2.792-1.486-5.626-2.697zm11.614 8.438q-2.17 3.131-4.152 6.43v-9.037c1.496.876 2.884 1.755 4.151 2.607zm13.935 27.053c-2.611-2.2-13.288-11.346-17.907-17.289q2.576-4.538 5.474-8.727c1.81 1.279 3.437 2.537 4.856 3.706q-1.95 2.346-3.851 4.889l-.495.662L50.12 53.283l11.834-11.187-.513-.658q-1.875-2.4-3.875-4.689c1.337-1.025 2.852-2.123 4.534-3.248q.28-.187.571-.378a78.664 78.664 0 015.3 8.41c-4.602 6.14-15.302 15.234-17.92 17.424zm18.01-20.967q-1.744-2.92-3.851-5.855c1.184-.743 2.465-1.508 3.838-2.275zm1.94-11.255l-.069-10.647c2.484-1.39 5.084-2.711 7.821-3.976v11.113c-2.789 1.1-5.38 2.293-7.752 3.51z"/>
</svg>