<svg xmlns="http://www.w3.org/2000/svg" viewBox="0 0 24.003 24.002">
  <defs/>
  <path d="M4.496 11.724l3.585 1.341 1.388 4.459a.422.422 0 00.67.2l2-1.628a.6.6 0 01.727-.02l3.6 2.615a.423.423 0 00.662-.255l2.641-12.691a.423.423 0 00-.566-.48L4.489 10.937a.422.422 0 000 .79zm4.749.625l7.007-4.312a.122.122 0 01.147.193l-5.778 5.371a1.2 1.2 0 00-.372.717l-.2 1.459a.181.181 0 01-.354.025l-.758-2.66a.7.7 0 01.308-.793zm0 0"/>
  <path fill="none" d="M0 0v24h24V0zm22.518 22.518H1.485V1.485h21.033zm0 0"/>
</svg>
