<svg xmlns="http://www.w3.org/2000/svg" viewBox="0 0 24 24">
  <defs/>
  <path d="M4.235 16.866a9.065 9.065 0 0013.948-7.614q0-.206-.009-.411a6.46 6.46 0 001.59-1.645 6.381 6.381 0 01-1.83.5 3.189 3.189 0 001.4-1.758 6.389 6.389 0 01-2.023.771 3.186 3.186 0 00-5.429 2.9 9.052 9.052 0 01-6.567-3.321 3.176 3.176 0 00.986 4.243 3.179 3.179 0 01-1.443-.4v.04a3.182 3.182 0 002.556 3.116 3.193 3.193 0 01-1.439.054 3.188 3.188 0 002.976 2.207 6.444 6.444 0 01-4.716 1.318zm0 0"/>
  <path fill="none" d="M0 0v24h24V0zm22.515 22.515H1.485V1.485h21.03zm0 0"/>
</svg>
