<svg xmlns="http://www.w3.org/2000/svg" viewBox="0 0 24.003 24.002">
  <defs/>
  <path d="M7.207 13.685a7.176 7.176 0 002.167 2.081 5.647 5.647 0 003.22.711c.532-.026.692-.168.716-.712a2.472 2.472 0 01.237-1.079.465.465 0 01.75-.186 2.153 2.153 0 01.4.371c.3.336.59.683.9 1.008a1.719 1.719 0 001.434.6h2.25c.362-.025.55-.481.343-.9a4.5 4.5 0 00-.542-.8 20.95 20.95 0 00-1.514-1.562c-.462-.463-.491-.731-.12-1.265.406-.583.841-1.143 1.25-1.723a6.281 6.281 0 00.973-1.731c.128-.414.015-.6-.4-.669a1.319 1.319 0 00-.218-.012h-2.448a.546.546 0 00-.574.4c-.144.371-.293.741-.465 1.1a9.02 9.02 0 01-1.432 2.258c-.135.146-.284.331-.508.255-.28-.105-.363-.58-.358-.74v-2.9c-.054-.413-.144-.6-.545-.679h-2.538a.806.806 0 00-.691.353c-.1.126-.136.207.079.249a.862.862 0 01.723.8A9.164 9.164 0 0110.331 11a1.978 1.978 0 01-.129.6c-.123.3-.322.36-.583.175a2.438 2.438 0 01-.564-.636 14.178 14.178 0 01-1.493-2.84.649.649 0 00-.611-.47c-.734-.012-1.469-.014-2.2 0-.441.008-.573.228-.392.64a28.216 28.216 0 002.848 5.216zm0 0"/>
  <path fill="none" d="M0 0v24h24V0zm22.518 22.518H1.485V1.485h21.033zm0 0"/>
</svg>
