<svg xmlns="http://www.w3.org/2000/svg" viewBox="0 0 24.003 24.002">
  <defs/>
  <path d="M6.197 17.274a51.272 51.272 0 005.8.218 51.264 51.264 0 005.8-.218 1.971 1.971 0 001.676-1.549 25.87 25.87 0 000-7.448 1.97 1.97 0 00-1.676-1.548 51.235 51.235 0 00-5.8-.218 51.259 51.259 0 00-5.8.218 1.968 1.968 0 00-1.674 1.548 25.643 25.643 0 000 7.448 1.969 1.969 0 001.674 1.549zm3.8-8.037l4.927 2.613-4.927 2.6zm0 0"/>
  <path fill="none" d="M0 0v24h24V0zm22.518 22.518H1.485V1.485h21.033zm0 0"/>
</svg>
